<?xml version="1.0" encoding="UTF-8" standalone="no"?>
<svg
   xmlns:dc="http://purl.org/dc/elements/1.1/"
   xmlns:cc="http://creativecommons.org/ns#"
   xmlns:rdf="http://www.w3.org/1999/02/22-rdf-syntax-ns#"
   xmlns:svg="http://www.w3.org/2000/svg"
   xmlns="http://www.w3.org/2000/svg"
   xmlns:sodipodi="http://sodipodi.sourceforge.net/DTD/sodipodi-0.dtd"
   xmlns:inkscape="http://www.inkscape.org/namespaces/inkscape"
   version="1.1"
   id="svg2"
   xml:space="preserve"
   width="1078.4263"
   height="360.78781"
   viewBox="0 0 1078.4263 360.78781"
   sodipodi:docname="Full - Horizontal - Tight Spacing.svg"
   inkscape:version="1.0.2-2 (e86c870879, 2021-01-15)"><metadata
     id="metadata8"><rdf:RDF><cc:Work
         rdf:about=""><dc:format>image/svg+xml</dc:format><dc:type
           rdf:resource="http://purl.org/dc/dcmitype/StillImage" /><dc:title></dc:title></cc:Work></rdf:RDF></metadata><defs
     id="defs6"><clipPath
       clipPathUnits="userSpaceOnUse"
       id="clipPath18"><path
         d="M 0,595.276 H 841.89 V 0 H 0 Z"
         id="path16" /></clipPath></defs><sodipodi:namedview
     pagecolor="#ffffff"
     bordercolor="#666666"
     borderopacity="1"
     objecttolerance="10"
     gridtolerance="10"
     guidetolerance="10"
     inkscape:pageopacity="0"
     inkscape:pageshadow="2"
     inkscape:window-width="3840"
     inkscape:window-height="2081"
     id="namedview4"
     showgrid="false"
     showguides="true"
     inkscape:guide-bbox="true"
     inkscape:snap-global="true"
     inkscape:snap-bbox="true"
     inkscape:bbox-paths="true"
     inkscape:bbox-nodes="true"
     inkscape:zoom="2"
     inkscape:cx="383.1264"
     inkscape:cy="212.18247"
     inkscape:window-x="2391"
     inkscape:window-y="-9"
     inkscape:window-maximized="1"
     inkscape:current-layer="g10"
     inkscape:document-rotation="0"
     fit-margin-top="0"
     fit-margin-left="0"
     fit-margin-right="0"
     fit-margin-bottom="0"><sodipodi:guide
       position="-0.010298585,1030.7191"
       orientation="1,0"
       id="guide991" /><sodipodi:guide
       position="-16.59058,1071.8317"
       orientation="0,-1"
       id="guide1196" /><sodipodi:guide
       position="153.29223,753.82"
       orientation="0,-1"
       id="guide1198" /><sodipodi:guide
       position="272.35473,935.43936"
       orientation="1,0"
       id="guide1220" /><sodipodi:guide
       position="315.2694,1035.82"
       orientation="1,0"
       id="guide1222" /><sodipodi:guide
       position="18.768549,711.1985"
       orientation="0,1"
       id="guide1307"
       inkscape:label=""
       inkscape:locked="false"
       inkscape:color="rgb(0,0,255)" /><sodipodi:guide
       position="1078.4263,912.6325"
       orientation="1,0"
       id="guide1329" /><sodipodi:guide
       position="1121.3235,784.6325"
       orientation="1,0"
       id="guide1331" /><sodipodi:guide
       position="-21.737187,1157.3825"
       orientation="0,-1"
       id="guide1333" /><sodipodi:guide
       position="-42.924965,723.3825"
       orientation="1,0"
       id="guide1335" /><sodipodi:guide
       position="-21.737185,360.78781"
       orientation="0,-1"
       id="guide1337" /><sodipodi:guide
       position="62.573483,0.0032785045"
       orientation="0,-1"
       id="guide915" /><sodipodi:guide
       position="-21.426518,318.01315"
       orientation="0,-1"
       id="guide917" /></sodipodi:namedview><g
     id="g10"
     inkscape:groupmode="layer"
     inkscape:label="cuno-logo"
     transform="matrix(1.3333333,0,0,-1.3333333,-42.926518,750.92666)"><g
       id="g12"
       transform="translate(0.00101809,-12.977576)"
       inkscape:export-xdpi="138.87"
       inkscape:export-ydpi="138.87"><g
         id="g14"
         clip-path="url(#clipPath18)"
         transform="translate(25.717771,125.97758)"><g
           id="g20"
           transform="translate(121.0366,388.1689)"><path
             d="m 0,0 c -21.728,0.506 -34.89,0.496 -46.845,-3.988 -11.97,-4.489 -19.446,-10.467 -20.443,-17.197 -0.995,-6.728 -4.736,-2.495 -7.723,2.742 -3.396,5.939 -4.576,17.009 2.74,24.676 15.948,16.697 43.614,22.173 67.539,22.173 23.921,0 42.552,-7.208 48.414,-9.872 2.729,-1.238 3.75,-0.89 6.361,0.412 2.497,1.247 15.866,8.31 19.586,10.33 2.894,1.574 3.059,0.439 3.059,-3.797 V 2.83 c 0,-4.981 -0.196,-5.265 -3.384,-6.859 -2.992,-1.496 -16.764,-8.883 -19.178,-10.084 -1.492,-0.749 -2.523,-1.588 -5.769,0.902 C 41.123,-10.718 21.433,-0.502 0,0"
             style="fill:#f7931e;fill-opacity:1;fill-rule:nonzero;stroke:none"
             id="path22" /></g><g
           id="g24"
           transform="translate(179.9541,248.6006)"><path
             d="m 0,0 c 0,-3.735 -1.181,-3.906 -6.614,-4.927 -5.444,-1.022 -22.708,-3.266 -26.114,-3.457 -6.114,-0.341 -4.422,1.527 -4.422,7.131 0,5.603 -0.164,12.228 -0.164,16.985 0,4.757 0.19,5.372 6.794,6.115 12.059,1.361 14.556,1.083 25.773,3.462 C -0.892,26.124 0,26.093 0,20.659 Z m -75.588,25.648 c -0.392,-5.468 -1.946,-4.683 -7.818,-3.905 -8.131,1.089 -18.837,2.363 -21.365,2.802 -2.529,0.434 -2.168,2.301 -2.168,4.055 v 24.504 c 0,2.412 1.085,1.968 3.854,1.643 2.776,-0.328 15.386,-2.526 22.424,-2.915 3.978,-0.223 5.073,-0.891 5.073,-3.517 0,-2.628 0.108,-21.133 0,-22.667 m -31.351,-3.911 V -1.047 c 0,-3.287 -1.805,-4.381 -3.493,-4.05 0,0 -9.881,3.038 -14.446,4.132 -4.588,1.094 -12.054,3.396 -14.345,4.273 -2.286,0.877 -1.805,2.41 -1.805,5.696 v 21.195 c 0,2.519 0.603,2.849 2.415,2.189 1.8,-0.656 5.536,-1.858 9.633,-2.957 4.102,-1.094 16.021,-3.72 19.152,-4.163 3.132,-0.44 2.889,-0.904 2.889,-3.531 M 26.289,-23.615 c -5.217,-2.343 -16.661,-5.836 -21.935,-6.996 -3.637,-0.795 -4.163,0.381 -4.163,3.209 v 19.121 c 0,3.922 1.92,5.438 4.793,6.316 2.869,0.865 17.46,4.87 22.14,6.996 4.675,2.126 3.653,3.689 3.653,8.657 v 9.169 8.973 c 0,2.642 -0.769,4.964 -4.674,3.607 C 17.398,32.408 7.477,28.632 6.001,28.239 0.609,26.805 1.094,29.404 0.97,33.265 0.795,38.832 0.625,46.819 0.609,52.931 c -0.005,4.679 1.115,5.154 2.564,5.603 5.433,1.702 21.738,6.287 24.281,7.308 2.849,1.138 3.323,2.374 3.323,6.964 v 21.402 c 0,5.962 -2.203,5.766 -6.501,3.993 0,0 -15.706,-8.384 -46.349,-14.509 -19.88,-3.975 -74.263,-3.319 -102.822,7.943 -37.391,14.747 -44.769,32.344 -46.204,34.085 -1.435,1.745 -2.379,-0.743 -2.379,-3.828 0,-3.083 0.361,-24.831 0.361,-29.338 0,-4.502 -0.309,-10.141 4.315,-13.467 6.821,-4.903 20.534,-12.027 23.888,-13.332 3.354,-1.303 3.834,-3.266 3.834,-6.968 V 37.836 c 0,-5.227 -5.748,-2.183 -11.496,0.217 -5.742,2.4 -14.601,9.186 -17.481,10.495 -2.863,1.305 -3.105,0.217 -3.105,-3.488 V 24.292 c 0,-4.133 0.211,-6.703 14.844,-13.503 5.923,-2.756 11.49,-4.354 14.606,-5.665 3.111,-1.301 2.632,-2.389 2.632,-5.438 0,-3.05 0.479,-18.208 0.479,-20.825 0,-2.604 -1.681,-4.133 -3.358,-3.477 -1.671,0.65 -7.492,2.816 -13.234,5.221 -5.743,2.389 -10.944,5.226 -12.626,6.316 -1.672,1.089 -3.426,0.877 -3.426,-2.023 0,-2.91 -0.16,-13.699 -0.16,-16.964 0,-3.262 0.315,-10.103 1.48,-11.311 1.74,-1.802 6.677,-4.364 11.992,-6.852 6.114,-2.858 13.343,-4.22 15.974,-5.092 2.641,-0.873 3.111,0.872 3.111,3.05 v 22.861 c 0,2.399 0.717,3.482 3.127,2.834 2.384,-0.651 5.5,-1.745 11.965,-3.488 6.46,-1.739 12.45,-2.829 15.567,-3.045 3.111,-0.223 2.868,0.872 2.868,3.699 v 20.345 c 0,2.177 0.717,2.828 3.834,2.389 3.117,-0.428 20.588,-2.317 31.577,-2.317 10.965,0 27.325,-0.031 30.679,0.403 3.349,0.434 2.632,-1.961 2.632,-5.006 v -19.641 c 0,-5.228 -2.828,-5.115 -9.576,-5.445 -8.947,-0.449 -21.186,-0.449 -26.098,-0.129 -4.309,0.274 -4.546,1.213 -4.546,-1.831 v -24.777 c 0,-3.271 3.339,-3.575 8.375,-3.575 5.026,0 26.954,0.458 30.069,1.114 3.112,0.651 3.215,2.787 3.215,7.373 v 17.64 c 0,3.051 0.491,4.676 3.586,4.969 6.852,0.635 26.262,4.134 29.606,5.222 3.354,1.089 3.911,-0.639 3.911,-3.911 0,-3.261 -0.231,-16.727 -0.231,-21.081 0,-4.356 2.425,-3.706 5.664,-3.071 7.142,1.398 19.112,5.134 21.748,6.662 2.632,1.52 3.24,3.209 3.24,5.602 v 22.899 c 0,3.271 -0.82,3.426 -4.075,1.961"
             style="fill:#046fb7;fill-opacity:1;fill-rule:nonzero;stroke:none"
             id="path26" /></g><g
           id="g28"
           transform="translate(272.3428,211.8438)" /><g
           id="g32"
           transform="translate(299.6069,203.8926)" /><g
           id="g38"
           transform="translate(353.0757,194.8838)" /><g
           id="g42"
           transform="translate(372.5898,201.6748)" /><g
           id="g46"
           transform="translate(402.1123,201.4258)" /><g
           id="g50"
           transform="translate(407.2568,212.6123)" /><g
           id="g56"
           transform="translate(441.708,203.8926)" /><g
           id="g60"
           transform="translate(478.5479,201.6748)" /><g
           id="g64"
           transform="translate(523.1943,209.6455)" /><g
           id="g68"
           transform="translate(556.8145,183.5225)" /><g
           id="g72"
           transform="translate(575.085,213.1953)" /><g
           id="g76"
           transform="translate(601.6729,194.8838)" /><g
           id="g80"
           transform="translate(632.2119,199.2031)" /><g
           id="g84"
           transform="translate(640.334,212.2822)" /><g
           id="g88"
           transform="translate(661.3027,186.9902)" /><g
           id="g92"
           transform="translate(687.7041,212.2822)" /><g
           id="g96"
           transform="translate(710.2627,201.6328)" /><g
           id="g100"
           transform="translate(726.3252,203.8926)" /><g
           id="g104"
           transform="translate(751.1123,201.6748)" /><g
           id="g108"
           transform="translate(780.1709,201.6748)" /><g
           id="g112"
           transform="translate(816.9023,194.8838)" /><g
           id="g116"
           transform="translate(367.9824,259.7246)" /><g
           id="g120"
           transform="translate(473.1299,273.8936)" /><g
           id="g124"
           transform="translate(580.1777,228.8242)" /><g
           id="g128"
           transform="translate(687.5967,282.3604)" /><g
           id="g134"
           transform="translate(821.582,266.5664)" /><g
           id="g138"
           transform="translate(717.2266,230.4639)" /><g
           id="g142"
           transform="translate(727.43272,322.26313)"><g
             id="g1285"><path
               d="m 0,0 h 3.055 v -18.436 c 0,-2.187 0.041,-3.549 0.124,-4.091 0.149,-1.203 0.505,-2.213 1.052,-3.024 0.557,-0.804 1.409,-1.486 2.559,-2.033 1.146,-0.547 2.307,-0.819 3.462,-0.819 1.017,0 1.987,0.215 2.916,0.643 0.928,0.429 1.702,1.024 2.322,1.781 0.618,0.763 1.088,1.687 1.377,2.766 0.196,0.775 0.309,2.368 0.309,4.777 V 0 h 3.055 v -18.436 c 0,-2.724 -0.279,-4.932 -0.805,-6.616 -0.531,-1.679 -1.599,-3.146 -3.198,-4.394 -1.6,-1.239 -3.536,-1.867 -5.8,-1.867 -2.467,0 -4.572,0.591 -6.336,1.764 -1.759,1.181 -2.937,2.738 -3.535,4.674 C 0.186,-23.683 0,-21.536 0,-18.436 Z"
               style="fill:#046fb7;fill-opacity:1;fill-rule:nonzero;stroke:none"
               id="path30"
               transform="translate(-471.4111,-103.27)" /><path
               d="m 0,0 h 2.904 v -4.045 c 1.167,1.549 2.451,2.703 3.866,3.478 1.413,0.764 2.945,1.156 4.606,1.156 1.698,0 3.194,-0.434 4.505,-1.291 1.306,-0.861 2.265,-2.022 2.894,-3.467 0.624,-1.454 0.939,-3.72 0.939,-6.79 v -11.635 h -2.92 v 10.778 c 0,2.602 -0.108,4.339 -0.315,5.212 -0.34,1.496 -0.979,2.622 -1.945,3.374 -0.95,0.758 -2.203,1.135 -3.735,1.135 -1.76,0 -3.334,-0.583 -4.727,-1.744 -1.387,-1.166 -2.306,-2.6 -2.755,-4.323 -0.269,-1.12 -0.413,-3.169 -0.413,-6.146 v -8.286 H 0 Z"
               style="fill:#046fb7;fill-opacity:1;fill-rule:nonzero;stroke:none"
               id="path34"
               transform="translate(-444.147,-111.2212)" /><path
               d="m 325.105,212.612 h 2.915 v -31.313 h -2.915 z"
               style="fill:#046fb7;fill-opacity:1;fill-rule:nonzero;stroke:none"
               id="path36"
               transform="translate(-743.7539,-315.1138)" /><path
               d="M 0,0 C -0.387,1.549 -0.949,2.791 -1.687,3.715 -2.43,4.645 -3.416,5.387 -4.633,5.96 -5.852,6.527 -7.135,6.811 -8.477,6.811 -10.696,6.811 -12.6,6.094 -14.199,4.669 -15.355,3.632 -16.248,2.074 -16.841,0 Z m 0,-6.083 2.456,-1.291 c -0.805,-1.572 -1.729,-2.852 -2.786,-3.822 -1.047,-0.964 -2.239,-1.702 -3.555,-2.208 -1.316,-0.506 -2.807,-0.759 -4.468,-0.759 -3.684,0 -6.573,1.207 -8.643,3.622 -2.084,2.42 -3.121,5.144 -3.121,8.189 0,2.869 0.882,5.426 2.637,7.666 2.233,2.849 5.215,4.284 8.962,4.284 3.849,0 6.923,-1.466 9.23,-4.387 1.63,-2.063 2.456,-4.638 2.487,-7.728 H -17.13 c 0.052,-2.623 0.897,-4.774 2.518,-6.451 1.62,-1.677 3.627,-2.516 6.016,-2.516 1.14,0 2.265,0.195 3.348,0.597 1.094,0.403 2.019,0.929 2.782,1.595 0.758,0.66 1.584,1.732 2.466,3.209"
               style="fill:#046fb7;fill-opacity:1;fill-rule:nonzero;stroke:none"
               id="path40"
               transform="translate(-390.6782,-120.23)" /><path
               d="m 0,0 c -1.615,0 -3.106,-0.404 -4.479,-1.198 -1.367,-0.794 -2.466,-1.909 -3.271,-3.344 -0.805,-1.438 -1.213,-2.962 -1.213,-4.571 0,-1.584 0.408,-3.106 1.223,-4.562 0.821,-1.454 1.914,-2.578 3.292,-3.384 1.372,-0.815 2.853,-1.216 4.422,-1.216 1.594,0 3.101,0.401 4.525,1.207 1.424,0.794 2.518,1.878 3.287,3.25 0.769,1.373 1.151,2.911 1.151,4.624 0,2.614 -0.858,4.802 -2.581,6.551 C 4.633,-0.878 2.517,0 0,0 M 11.619,2.218 V -20.376 H 8.755 v 3.884 c -1.222,-1.486 -2.589,-2.595 -4.106,-3.343 -1.512,-0.747 -3.168,-1.119 -4.969,-1.119 -3.195,0 -5.933,1.161 -8.193,3.476 -2.266,2.317 -3.396,5.141 -3.396,8.458 0,3.26 1.145,6.042 3.431,8.349 2.281,2.317 5.031,3.478 8.245,3.478 1.848,0 3.524,-0.405 5.026,-1.188 C 6.3,0.825 7.616,-0.352 8.755,-1.93 v 4.148 z"
               style="fill:#046fb7;fill-opacity:1;fill-rule:nonzero;stroke:none"
               id="path44"
               transform="translate(-371.1641,-113.439)" /><path
               d="m 0,0 -1.867,-1.93 c -1.563,1.508 -3.075,2.261 -4.566,2.261 -0.945,0 -1.755,-0.314 -2.425,-0.939 -0.677,-0.62 -1.007,-1.341 -1.007,-2.177 0,-0.734 0.274,-1.434 0.831,-2.095 0.552,-0.682 1.719,-1.475 3.493,-2.39 2.163,-1.119 3.638,-2.203 4.412,-3.241 0.768,-1.052 1.146,-2.232 1.146,-3.549 0,-1.857 -0.656,-3.431 -1.956,-4.721 -1.3,-1.279 -2.925,-1.924 -4.887,-1.924 -1.305,0 -2.548,0.283 -3.73,0.851 -1.187,0.568 -2.167,1.352 -2.946,2.342 l 1.826,2.085 c 1.491,-1.682 3.066,-2.518 4.727,-2.518 1.165,0 2.151,0.377 2.977,1.126 0.82,0.742 1.228,1.619 1.228,2.636 0,0.831 -0.269,1.568 -0.811,2.218 -0.541,0.634 -1.764,1.44 -3.668,2.41 -2.038,1.053 -3.42,2.096 -4.158,3.116 -0.733,1.022 -1.105,2.193 -1.105,3.508 0,1.713 0.589,3.143 1.76,4.279 1.176,1.134 2.652,1.708 4.442,1.708 C -4.21,3.056 -2.114,2.033 0,0"
               style="fill:#046fb7;fill-opacity:1;fill-rule:nonzero;stroke:none"
               id="path48"
               transform="translate(-341.6416,-113.688)" /><path
               d="m 0,0 h 2.905 v -12.765 c 1.182,1.549 2.477,2.703 3.886,3.478 1.413,0.765 2.946,1.156 4.586,1.156 1.698,0 3.195,-0.433 4.5,-1.291 1.315,-0.86 2.269,-2.012 2.894,-3.457 0.629,-1.449 0.939,-3.72 0.939,-6.8 v -11.634 h -2.915 v 10.777 c 0,2.602 -0.098,4.34 -0.31,5.212 -0.35,1.496 -1.011,2.622 -1.955,3.374 -0.944,0.759 -2.198,1.136 -3.73,1.136 -1.76,0 -3.333,-0.583 -4.727,-1.745 -1.388,-1.166 -2.311,-2.6 -2.755,-4.323 -0.269,-1.103 -0.413,-3.153 -0.413,-6.145 v -8.286 H 0 Z"
               style="fill:#046fb7;fill-opacity:1;fill-rule:nonzero;stroke:none"
               id="path52"
               transform="translate(-336.4971,-102.5015)" /><path
               d="m 432.756,203.893 h 2.915 v -22.594 h -2.915 z m 1.445,9.302 c 0.655,0 1.228,-0.231 1.693,-0.707 0.469,-0.469 0.701,-1.031 0.701,-1.697 0,-0.65 -0.232,-1.213 -0.701,-1.687 -0.465,-0.47 -1.038,-0.702 -1.693,-0.702 -0.651,0 -1.203,0.232 -1.677,0.702 -0.464,0.474 -0.702,1.037 -0.702,1.687 0,0.666 0.238,1.228 0.702,1.697 0.474,0.476 1.026,0.707 1.677,0.707"
               style="fill:#046fb7;fill-opacity:1;fill-rule:nonzero;stroke:none"
               id="path54"
               transform="translate(-743.7539,-315.1138)" /><path
               d="m 0,0 h 2.911 v -4.045 c 1.16,1.549 2.45,2.703 3.859,3.478 1.414,0.764 2.951,1.156 4.612,1.156 1.687,0 3.188,-0.434 4.494,-1.291 1.311,-0.861 2.275,-2.022 2.9,-3.467 0.619,-1.454 0.929,-3.72 0.929,-6.79 V -22.594 H 16.8 v 10.778 c 0,2.602 -0.109,4.339 -0.321,5.212 -0.344,1.496 -0.985,2.622 -1.939,3.374 -0.965,0.758 -2.198,1.135 -3.736,1.135 -1.765,0 -3.337,-0.583 -4.726,-1.744 -1.392,-1.166 -2.311,-2.6 -2.755,-4.323 -0.273,-1.12 -0.412,-3.169 -0.412,-6.146 v -8.286 H 0 Z"
               style="fill:#046fb7;fill-opacity:1;fill-rule:nonzero;stroke:none"
               id="path58"
               transform="translate(-302.0459,-111.2212)" /><path
               d="m 0,0 c -1.646,0 -3.173,-0.404 -4.592,-1.198 -1.413,-0.794 -2.518,-1.9 -3.323,-3.302 -0.799,-1.402 -1.207,-2.92 -1.207,-4.556 0,-2.482 0.836,-4.53 2.497,-6.144 1.661,-1.621 3.812,-2.425 6.455,-2.425 2.673,0 4.824,0.794 6.449,2.403 1.625,1.6 2.441,3.715 2.441,6.33 0,1.704 -0.372,3.226 -1.124,4.557 -0.744,1.336 -1.808,2.394 -3.18,3.169 C 3.05,-0.388 1.573,0 0,0 m 8.581,2.218 h 2.899 v -17.997 c 0,-3.172 -0.278,-5.495 -0.825,-6.959 -0.769,-2.081 -2.091,-3.68 -3.973,-4.799 -1.884,-1.12 -4.144,-1.683 -6.79,-1.683 -1.935,0 -3.668,0.274 -5.222,0.826 -1.537,0.542 -2.791,1.284 -3.767,2.203 -0.97,0.923 -1.862,2.275 -2.682,4.055 h 3.163 c 0.855,-1.497 1.966,-2.606 3.323,-3.323 1.361,-0.723 3.049,-1.083 5.045,-1.083 1.986,0 3.664,0.37 5.031,1.11 1.362,0.737 2.337,1.665 2.916,2.781 0.587,1.115 0.882,2.919 0.882,5.413 v 1.16 c -1.095,-1.382 -2.436,-2.446 -4.019,-3.183 -1.581,-0.74 -3.256,-1.115 -5.031,-1.115 -2.08,0 -4.024,0.516 -5.862,1.548 -1.826,1.037 -3.24,2.42 -4.24,4.163 -0.996,1.744 -1.492,3.664 -1.492,5.754 0,2.089 0.516,4.039 1.564,5.845 1.036,1.807 2.465,3.236 4.303,4.293 1.842,1.043 3.776,1.58 5.814,1.58 1.688,0 3.267,-0.353 4.727,-1.053 1.46,-0.702 2.873,-1.853 4.236,-3.457 z"
               style="fill:#046fb7;fill-opacity:1;fill-rule:nonzero;stroke:none"
               id="path62"
               transform="translate(-265.206,-113.439)" /><path
               d="m 0,0 c -2.255,0 -4.406,-0.583 -6.429,-1.771 -2.022,-1.175 -3.601,-2.764 -4.741,-4.755 -1.141,-1.992 -1.703,-4.216 -1.703,-6.667 0,-3.632 1.249,-6.698 3.771,-9.194 2.519,-2.504 5.547,-3.756 9.102,-3.756 2.368,0 4.566,0.577 6.584,1.723 2.017,1.15 3.585,2.723 4.716,4.717 1.135,1.996 1.697,4.214 1.697,6.653 0,2.42 -0.562,4.613 -1.697,6.579 -1.131,1.957 -2.72,3.525 -4.774,4.7 C 4.479,-0.583 2.307,0 0,0 m -0.139,2.967 c 4.628,0 8.503,-1.537 11.615,-4.629 3.115,-3.085 4.679,-6.883 4.679,-11.398 0,-4.472 -1.554,-8.265 -4.665,-11.38 -3.111,-3.118 -6.902,-4.674 -11.371,-4.674 -4.53,0 -8.359,1.551 -11.47,4.651 -3.127,3.102 -4.68,6.854 -4.68,11.255 0,2.936 0.712,5.653 2.131,8.162 1.42,2.502 3.349,4.468 5.804,5.888 2.456,1.418 5.109,2.125 7.957,2.125"
               style="fill:#046fb7;fill-opacity:1;fill-rule:nonzero;stroke:none"
               id="path66"
               transform="translate(-220.5596,-105.4683)" /><path
               d="m 0,0 c 1.615,0 3.102,0.401 4.479,1.197 1.361,0.794 2.456,1.908 3.26,3.355 0.806,1.438 1.208,2.96 1.208,4.566 0,1.605 -0.402,3.132 -1.218,4.591 -0.81,1.449 -1.909,2.585 -3.286,3.391 -1.373,0.808 -2.838,1.216 -4.402,1.216 -1.584,0 -3.101,-0.408 -4.524,-1.216 -1.435,-0.806 -2.528,-1.9 -3.297,-3.273 -0.765,-1.367 -1.147,-2.91 -1.147,-4.628 0,-2.615 0.853,-4.803 2.576,-6.562 C -4.634,0.883 -2.518,0 0,0 M -11.63,-2.224 V 29.09 h 2.905 V 16.491 c 1.218,1.496 2.584,2.61 4.091,3.353 1.508,0.738 3.158,1.115 4.954,1.115 3.194,0 5.923,-1.168 8.183,-3.484 2.265,-2.322 3.395,-5.133 3.395,-8.441 0,-3.265 -1.145,-6.057 -3.42,-8.374 -2.287,-2.306 -5.032,-3.462 -8.24,-3.462 -1.838,0 -3.509,0.387 -5,1.183 -1.492,0.794 -2.807,1.97 -3.963,3.548 v -4.153 z"
               style="fill:#046fb7;fill-opacity:1;fill-rule:nonzero;stroke:none"
               id="path70"
               transform="translate(-186.9394,-131.5913)" /><path
               d="M 0,0 C 0.665,0 1.233,-0.231 1.692,-0.707 2.156,-1.177 2.39,-1.738 2.39,-2.404 2.39,-3.055 2.156,-3.617 1.692,-4.091 1.233,-4.562 0.665,-4.793 0,-4.793 c -0.665,0 -1.223,0.231 -1.688,0.702 -0.458,0.474 -0.691,1.036 -0.691,1.687 0,0.666 0.233,1.227 0.691,1.697 C -1.223,-0.231 -0.665,0 0,0 m -1.425,-9.303 h 2.946 v -25.999 c 0,-1.894 -0.344,-3.277 -1.031,-4.142 -0.685,-0.863 -1.626,-1.296 -2.811,-1.296 -0.982,0 -2.095,0.231 -3.324,0.707 v 2.614 c 0.775,-0.401 1.476,-0.602 2.095,-0.602 0.794,0 1.378,0.329 1.765,0.98 0.237,0.413 0.36,1.274 0.36,2.59 z"
               style="fill:#046fb7;fill-opacity:1;fill-rule:nonzero;stroke:none"
               id="path74"
               transform="translate(-168.6689,-101.9185)" /><path
               d="m 0,0 c -0.392,1.549 -0.955,2.791 -1.703,3.715 -0.742,0.93 -1.724,1.672 -2.937,2.245 -1.216,0.567 -2.502,0.851 -3.853,0.851 -2.214,0 -4.112,-0.717 -5.712,-2.142 C -15.371,3.632 -16.248,2.074 -16.852,0 Z m 0,-6.083 2.44,-1.291 c -0.8,-1.572 -1.728,-2.852 -2.776,-3.822 -1.058,-0.964 -2.244,-1.702 -3.56,-2.208 -1.315,-0.506 -2.801,-0.759 -4.468,-0.759 -3.69,0 -6.574,1.207 -8.648,3.622 -2.073,2.42 -3.122,5.144 -3.122,8.189 0,2.869 0.889,5.426 2.643,7.666 2.239,2.849 5.217,4.284 8.962,4.284 3.849,0 6.934,-1.466 9.23,-4.387 1.631,-2.063 2.467,-4.638 2.493,-7.728 h -20.33 c 0.052,-2.623 0.893,-4.774 2.514,-6.451 1.625,-1.677 3.626,-2.516 6.011,-2.516 1.145,0 2.269,0.195 3.363,0.597 1.078,0.403 2.008,0.929 2.77,1.595 0.765,0.66 1.59,1.732 2.478,3.209"
               style="fill:#046fb7;fill-opacity:1;fill-rule:nonzero;stroke:none"
               id="path78"
               transform="translate(-142.081,-120.23)" /><path
               d="m 0,0 -2.307,-1.435 c -1.991,2.648 -4.699,3.967 -8.146,3.967 -2.755,0 -5.035,-0.886 -6.852,-2.65 -1.827,-1.777 -2.735,-3.923 -2.735,-6.461 0,-1.641 0.418,-3.19 1.259,-4.644 0.843,-1.455 1.986,-2.58 3.442,-3.374 1.455,-0.805 3.096,-1.207 4.906,-1.207 3.319,0 6.028,1.321 8.126,3.967 L 0,-13.359 c -1.073,-1.62 -2.527,-2.883 -4.35,-3.776 -1.815,-0.898 -3.889,-1.347 -6.216,-1.347 -3.571,0 -6.533,1.134 -8.89,3.405 -2.354,2.269 -3.53,5.03 -3.53,8.28 0,2.189 0.551,4.222 1.657,6.1 1.099,1.878 2.61,3.339 4.534,4.395 1.921,1.043 4.077,1.58 6.449,1.58 1.503,0 2.942,-0.234 4.331,-0.692 C -4.623,4.132 -3.436,3.534 -2.466,2.801 -1.496,2.063 -0.671,1.129 0,0"
               style="fill:#046fb7;fill-opacity:1;fill-rule:nonzero;stroke:none"
               id="path82"
               transform="translate(-111.542,-115.9107)" /><path
               d="m 0,0 h 2.909 v -8.39 h 4.609 v -2.508 H 2.909 V -30.983 H 0 v 20.085 H -3.969 V -8.39 H 0 Z"
               style="fill:#046fb7;fill-opacity:1;fill-rule:nonzero;stroke:none"
               id="path86"
               transform="translate(-103.4199,-102.8316)" /><path
               d="m 0,0 2.601,1.557 c 1.826,-3.365 3.936,-5.044 6.331,-5.044 1.026,0 1.991,0.236 2.894,0.712 0.898,0.478 1.579,1.118 2.053,1.928 0.465,0.794 0.708,1.653 0.708,2.549 0,1.027 -0.352,2.033 -1.043,3.014 -0.954,1.35 -2.703,2.992 -5.231,4.901 -2.555,1.926 -4.133,3.313 -4.758,4.169 -1.078,1.445 -1.621,3.003 -1.621,4.674 0,1.333 0.316,2.538 0.955,3.632 0.634,1.095 1.538,1.962 2.688,2.591 1.156,0.63 2.414,0.939 3.773,0.939 1.438,0 2.791,-0.351 4.039,-1.062 1.249,-0.718 2.58,-2.029 3.973,-3.937 L 14.87,18.729 c -1.145,1.528 -2.126,2.528 -2.935,3.013 -0.806,0.486 -1.699,0.728 -2.653,0.728 -1.227,0 -2.234,-0.378 -3.012,-1.119 -0.786,-0.749 -1.177,-1.674 -1.177,-2.766 0,-0.66 0.138,-1.306 0.412,-1.931 0.278,-0.624 0.785,-1.3 1.521,-2.032 0.399,-0.393 1.72,-1.409 3.943,-3.055 2.642,-1.95 4.458,-3.694 5.443,-5.212 0.981,-1.52 1.472,-3.053 1.472,-4.591 0,-2.213 -0.837,-4.138 -2.525,-5.769 -1.68,-1.629 -3.724,-2.454 -6.133,-2.454 -1.858,0 -3.536,0.494 -5.046,1.485 C 2.668,-3.983 1.279,-2.322 0,0"
               style="fill:#046fb7;fill-opacity:1;fill-rule:nonzero;stroke:none"
               id="path90"
               transform="translate(-82.451199,-128.1236)" /><path
               d="m 0,0 h 2.9 v -8.39 h 4.608 v -2.508 H 2.9 V -30.983 H 0 v 20.085 H -3.968 V -8.39 H 0 Z"
               style="fill:#046fb7;fill-opacity:1;fill-rule:nonzero;stroke:none"
               id="path94"
               transform="translate(-56.049796,-102.8316)" /><path
               d="m 0,0 c -2.409,0 -4.495,-0.897 -6.228,-2.684 -1.744,-1.785 -2.606,-3.941 -2.606,-6.474 0,-1.636 0.392,-3.158 1.188,-4.571 0.793,-1.41 1.862,-2.503 3.203,-3.273 1.352,-0.768 2.834,-1.15 4.443,-1.15 1.615,0 3.09,0.382 4.441,1.15 1.348,0.77 2.415,1.863 3.21,3.273 0.785,1.413 1.181,2.935 1.181,4.571 0,2.533 -0.871,4.689 -2.614,6.474 C 4.479,-0.897 2.41,0 0,0 m 0.016,2.849 c 3.477,0 6.357,-1.27 8.646,-3.787 2.08,-2.292 3.127,-5.016 3.127,-8.163 0,-3.154 -1.108,-5.915 -3.302,-8.272 -2.198,-2.356 -5.025,-3.539 -8.471,-3.539 -3.473,0 -6.3,1.183 -8.503,3.539 -2.194,2.357 -3.297,5.118 -3.297,8.272 0,3.132 1.036,5.845 3.12,8.141 2.286,2.539 5.182,3.809 8.68,3.809"
               style="fill:#046fb7;fill-opacity:1;fill-rule:nonzero;stroke:none"
               id="path98"
               transform="translate(-33.491198,-113.481)" /><path
               d="m 0,0 h 2.972 v -3.302 c 0.887,1.301 1.822,2.275 2.8,2.92 0.981,0.64 2.008,0.971 3.076,0.971 0.796,0 1.655,-0.259 2.575,-0.775 L 9.905,-2.632 C 9.303,-2.373 8.791,-2.24 8.374,-2.24 7.398,-2.24 6.464,-2.637 5.562,-3.436 4.658,-4.231 3.983,-5.469 3.507,-7.141 3.151,-8.431 2.972,-11.031 2.972,-14.949 v -7.645 H 0 Z"
               style="fill:#046fb7;fill-opacity:1;fill-rule:nonzero;stroke:none"
               id="path102"
               transform="translate(-17.428695,-111.2212)" /><path
               d="m 0,0 c -1.621,0 -3.112,-0.404 -4.485,-1.198 -1.373,-0.794 -2.455,-1.909 -3.266,-3.344 -0.815,-1.438 -1.212,-2.962 -1.212,-4.571 0,-1.584 0.406,-3.106 1.222,-4.562 0.816,-1.454 1.915,-2.578 3.292,-3.384 1.379,-0.815 2.849,-1.216 4.422,-1.216 1.598,0 3.101,0.401 4.524,1.207 1.43,0.794 2.519,1.878 3.293,3.25 0.758,1.373 1.15,2.911 1.15,4.624 0,2.614 -0.872,4.802 -2.585,6.551 C 4.633,-0.878 2.511,0 0,0 M 11.619,2.218 V -20.376 H 8.746 v 3.884 c -1.213,-1.486 -2.581,-2.595 -4.094,-3.343 -1.52,-0.747 -3.177,-1.119 -4.978,-1.119 -3.194,0 -5.929,1.161 -8.189,3.476 -2.259,2.317 -3.388,5.141 -3.388,8.458 0,3.26 1.133,6.042 3.415,8.349 2.285,2.317 5.03,3.478 8.239,3.478 1.863,0 3.546,-0.405 5.047,-1.188 1.49,-0.794 2.816,-1.971 3.948,-3.549 v 4.148 z"
               style="fill:#046fb7;fill-opacity:1;fill-rule:nonzero;stroke:none"
               id="path106"
               transform="translate(7.3584303,-113.439)" /><path
               d="m 0,0 c -1.641,0 -3.174,-0.404 -4.593,-1.198 -1.408,-0.794 -2.523,-1.9 -3.317,-3.302 -0.806,-1.402 -1.202,-2.92 -1.202,-4.556 0,-2.482 0.83,-4.53 2.492,-6.144 1.655,-1.621 3.808,-2.425 6.456,-2.425 2.671,0 4.817,0.794 6.449,2.403 1.624,1.6 2.435,3.715 2.435,6.33 0,1.704 -0.367,3.226 -1.12,4.557 C 6.847,-2.999 5.799,-1.941 4.422,-1.166 3.055,-0.388 1.578,0 0,0 m 8.574,2.218 h 2.916 v -17.997 c 0,-3.172 -0.284,-5.495 -0.837,-6.959 -0.757,-2.081 -2.084,-3.68 -3.966,-4.799 -1.883,-1.12 -4.143,-1.683 -6.791,-1.683 -1.94,0 -3.678,0.274 -5.221,0.826 -1.547,0.542 -2.807,1.284 -3.773,2.203 -0.964,0.923 -1.861,2.275 -2.676,4.055 h 3.157 c 0.857,-1.497 1.971,-2.606 3.322,-3.323 1.363,-0.723 3.045,-1.083 5.057,-1.083 1.981,0 3.654,0.37 5.02,1.11 1.363,0.737 2.343,1.665 2.919,2.781 0.58,1.115 0.873,2.919 0.873,5.413 v 1.16 C 7.48,-17.46 6.14,-18.524 4.566,-19.261 c -1.579,-0.74 -3.256,-1.115 -5.032,-1.115 -2.079,0 -4.029,0.516 -5.864,1.548 -1.829,1.037 -3.24,2.42 -4.237,4.163 -0.996,1.744 -1.497,3.664 -1.497,5.754 0,2.089 0.522,4.039 1.559,5.845 1.037,1.807 2.472,3.236 4.313,4.293 1.832,1.043 3.767,1.58 5.805,1.58 1.697,0 3.266,-0.353 4.737,-1.053 1.459,-0.702 2.869,-1.853 4.224,-3.457 z"
               style="fill:#046fb7;fill-opacity:1;fill-rule:nonzero;stroke:none"
               id="path110"
               transform="translate(36.417031,-113.439)" /><path
               d="m 0,0 c -0.388,1.549 -0.944,2.791 -1.692,3.715 -0.738,0.93 -1.723,1.672 -2.948,2.245 -1.217,0.567 -2.497,0.851 -3.838,0.851 -2.219,0 -4.126,-0.717 -5.716,-2.142 C -15.36,3.632 -16.243,2.074 -16.836,0 Z m 0,-6.083 2.455,-1.291 c -0.804,-1.572 -1.727,-2.852 -2.79,-3.822 -1.048,-0.964 -2.235,-1.702 -3.551,-2.208 -1.315,-0.506 -2.806,-0.759 -4.468,-0.759 -3.684,0 -6.568,1.207 -8.647,3.622 -2.08,2.42 -3.117,5.144 -3.117,8.189 0,2.869 0.877,5.426 2.636,7.666 2.23,2.849 5.217,4.284 8.959,4.284 3.859,0 6.934,-1.466 9.236,-4.387 1.624,-2.063 2.454,-4.638 2.485,-7.728 h -20.317 c 0.051,-2.623 0.891,-4.774 2.501,-6.451 1.627,-1.677 3.633,-2.516 6.017,-2.516 1.149,0 2.27,0.195 3.352,0.597 1.095,0.403 2.019,0.929 2.777,1.595 0.765,0.66 1.59,1.732 2.472,3.209"
               style="fill:#046fb7;fill-opacity:1;fill-rule:nonzero;stroke:none"
               id="path114"
               transform="translate(73.148432,-120.23)" /><path
               d="m 0,0 -1.471,-3.121 c -11.036,-20.36 -28.084,-30.421 -51.142,-30.174 -15.211,0.123 -28.337,5.454 -39.374,16.006 -11.031,10.546 -16.619,23.362 -16.738,38.449 -0.247,15.208 5.176,28.239 16.279,39.095 11.098,10.85 24.38,16.4 39.833,16.648 11.031,0.116 21.34,-2.763 30.906,-8.648 9.07,-5.642 15.566,-12.757 19.498,-21.338 l 2.023,-4.603 h -15.851 c -7.868,13.612 -19.905,20.601 -36.122,20.977 -10.815,0.243 -20.535,-3.689 -29.126,-11.8 -8.973,-8.364 -13.462,-18.261 -13.462,-29.691 0,-11.428 4.179,-21.227 12.538,-29.409 8.354,-8.173 18.25,-12.193 29.678,-12.075 16.346,0.244 28.569,6.811 36.68,19.684 z"
               style="fill:#046fb7;fill-opacity:1;fill-rule:nonzero;stroke:none"
               id="path118"
               transform="translate(-375.7715,-55.389197)" /><path
               d="m 0,0 c 0,-13.617 -4.381,-24.958 -13.146,-34.033 -8.777,-9.075 -19.844,-13.616 -33.212,-13.616 -13.37,0 -24.442,4.541 -33.204,13.616 -8.776,9.075 -13.156,20.416 -13.156,34.033 v 59.79 h 13.982 V -1.775 c 0,-8.848 3.23,-16.433 9.706,-22.764 6.475,-6.331 14.028,-9.494 22.672,-9.494 8.636,0 16.189,3.163 22.671,9.494 6.465,6.331 9.705,13.916 9.705,22.764 V 59.79 H 0 Z"
               style="fill:#046fb7;fill-opacity:1;fill-rule:nonzero;stroke:none"
               id="path122"
               transform="translate(-270.624,-41.220197)" /><path
               d="m 0,0 h -13.987 v 61.258 c 0,8.83 -3.242,16.435 -9.706,22.813 -6.481,6.38 -14.029,9.566 -22.666,9.566 -8.762,0 -16.377,-3.186 -22.852,-9.566 -6.477,-6.378 -9.712,-13.983 -9.712,-22.813 V 0 H -92.91 v 59.785 c 0,13.616 4.417,24.933 13.25,33.945 8.829,9.014 19.927,13.52 33.301,13.52 13.239,0 24.28,-4.506 33.114,-13.52 C -4.411,84.718 0,73.401 0,59.785 Z"
               style="fill:#046fb7;fill-opacity:1;fill-rule:nonzero;stroke:none"
               id="path126"
               transform="translate(-163.5762,-86.289603)" /><path
               d="m 0,0 c -0.372,11.086 -4.346,20.574 -11.898,28.453 -7.565,7.889 -16.692,11.831 -27.378,11.831 -11.196,0.121 -20.727,-3.79 -28.594,-11.735 -7.868,-7.946 -11.858,-17.523 -11.971,-28.735 -0.259,-11.087 3.374,-20.787 10.871,-29.099 7.497,-8.319 16.651,-12.668 27.471,-13.034 11.562,-0.615 21.422,3.394 29.601,12.016 C -3.726,-21.681 0.236,-11.578 0,0 m 13.973,-1.109 c 0,-15.082 -5.487,-28.116 -16.47,-39.095 -10.971,-10.975 -23.998,-16.221 -39.085,-15.727 -14.597,0.371 -26.954,5.888 -37.072,16.558 -10.118,10.67 -15.174,23.363 -15.174,38.078 0,15.335 5.454,28.486 16.365,39.463 10.923,10.978 23.915,16.215 39.007,15.729 14.598,-0.489 26.975,-6.103 37.165,-16.83 C 8.885,26.335 13.973,13.608 13.973,-1.109"
               style="fill:#046fb7;fill-opacity:1;fill-rule:nonzero;stroke:none"
               id="path130"
               transform="translate(-56.157196,-32.753402)" /><path
               d="m 744.073,228.133 h -10.035 v 75.274 h 10.035 z"
               style="fill:#f7931e;fill-opacity:1;fill-rule:nonzero;stroke:none"
               id="path132"
               transform="translate(-743.7539,-315.1138)" /><path
               d="m 0,0 c -0.269,7.961 -3.117,14.771 -8.545,20.428 -5.428,5.663 -11.976,8.492 -19.652,8.492 -8.029,0.088 -14.865,-2.721 -20.52,-8.426 -5.64,-5.701 -8.514,-12.574 -8.601,-20.623 -0.177,-7.961 2.424,-14.927 7.817,-20.895 5.375,-5.971 11.95,-9.082 19.719,-9.351 8.291,-0.443 15.366,2.436 21.237,8.627 C -2.674,-15.556 0.165,-8.312 0,0 m 10.035,-0.795 c 0,-10.829 -3.942,-20.184 -11.821,-28.063 -7.884,-7.878 -17.237,-11.639 -28.067,-11.289 -10.475,0.268 -19.344,4.231 -26.605,11.888 -7.265,7.656 -10.896,16.775 -10.896,27.335 0,11.001 3.915,20.444 11.753,28.324 7.837,7.882 17.167,11.643 27.992,11.292 10.485,-0.356 19.374,-4.375 26.675,-12.084 7.317,-7.702 10.969,-16.84 10.969,-27.403"
               style="fill:#f7931e;fill-opacity:1;fill-rule:nonzero;stroke:none"
               id="path136"
               transform="translate(77.828132,-48.547397)" /><path
               d="m 0,0 c 0,-1.753 -1.416,-3.167 -3.166,-3.167 h -7.255 c -1.749,0 -3.169,1.414 -3.169,3.167 v 7.255 c 0,1.755 1.42,3.169 3.169,3.169 h 7.255 C -1.416,10.424 0,9.01 0,7.255 Z"
               style="fill:#046fb7;fill-opacity:1;fill-rule:nonzero;stroke:none"
               id="path140"
               transform="translate(-26.527298,-84.6499)" /><path
               d="M 0,0 C 0,-1.277 -1.043,-2.319 -2.312,-2.319 H -7.62 c -1.291,0 -2.321,1.042 -2.321,2.319 v 5.312 c 0,1.282 1.03,2.32 2.321,2.32 h 5.308 C -1.043,7.632 0,6.594 0,5.312 Z"
               style="fill:#f7931e;fill-opacity:1;fill-rule:nonzero;stroke:none"
               id="path144" /></g></g></g></g></g><g
     id="g1173"
     inkscape:groupmode="layer"
     inkscape:label="Spacing"
     transform="matrix(1.3333333,0,0,-1.3333333,-42.926518,750.92666)"
     style="display:none"><path
       d="m 16.030999,592.30901 c -2.255,0 -4.406,-0.583 -6.4289987,-1.771 -2.0220004,-1.175 -3.6010004,-2.764 -4.7410004,-4.755 -1.141,-1.992 -1.703,-4.216 -1.703,-6.667 0,-3.632 1.249,-6.698 3.771,-9.194 2.5190004,-2.504 5.5469991,-3.756 9.1019991,-3.756 2.368,0 4.566,0.577 6.584,1.723 2.017,1.15 3.585,2.723 4.716,4.717 1.135,1.996 1.697,4.214 1.697,6.653 0,2.42 -0.562,4.613 -1.697,6.579 -1.131,1.957 -2.72,3.525 -4.774,4.7 -2.047,1.188 -4.219,1.771 -6.526,1.771 m -0.139,2.967 c 4.628,0 8.503,-1.537 11.615,-4.629 3.115,-3.085 4.679,-6.883 4.679,-11.398 0,-4.472 -1.554,-8.265 -4.665,-11.38 -3.111,-3.118 -6.902,-4.674 -11.371,-4.674 -4.53,0 -8.3589991,1.551 -11.4699991,4.651 -3.127,3.102 -4.6799999,6.854 -4.6799999,11.255 0,2.936 0.71200003,5.653 2.1309999,8.162 1.42,2.502 3.349,4.468 5.804,5.888 2.4559991,1.418 5.1089991,2.125 7.9569991,2.125"
       style="fill:#046fb7;fill-opacity:1;fill-rule:nonzero;stroke:none"
       id="path1169" /><path
       d="m 252.49194,560.22801 c -2.255,0 -4.406,-0.583 -6.429,-1.771 -2.022,-1.175 -3.601,-2.764 -4.741,-4.755 -1.141,-1.992 -1.703,-4.216 -1.703,-6.667 0,-3.632 1.249,-6.698 3.771,-9.194 2.519,-2.504 5.547,-3.756 9.102,-3.756 2.368,0 4.566,0.577 6.584,1.723 2.017,1.15 3.585,2.723 4.716,4.717 1.135,1.996 1.697,4.214 1.697,6.653 0,2.42 -0.562,4.613 -1.697,6.579 -1.131,1.957 -2.72,3.525 -4.774,4.7 -2.047,1.188 -4.219,1.771 -6.526,1.771 m -0.139,2.967 c 4.628,0 8.503,-1.537 11.615,-4.629 3.115,-3.085 4.679,-6.883 4.679,-11.398 0,-4.472 -1.554,-8.265 -4.665,-11.38 -3.111,-3.118 -6.902,-4.674 -11.371,-4.674 -4.53,0 -8.359,1.551 -11.47,4.651 -3.127,3.102 -4.68,6.854 -4.68,11.255 0,2.936 0.712,5.653 2.131,8.162 1.42,2.502 3.349,4.468 5.804,5.888 2.456,1.418 5.109,2.125 7.957,2.125"
       style="display:inline;fill:#046fb7;fill-opacity:1;fill-rule:nonzero;stroke:none"
       id="path1169-8"
       inkscape:export-xdpi="138.87"
       inkscape:export-ydpi="138.87" /><path
       d="m 252.49194,289.75172 c -2.255,0 -4.406,-0.583 -6.429,-1.771 -2.022,-1.175 -3.601,-2.764 -4.741,-4.755 -1.141,-1.992 -1.703,-4.216 -1.703,-6.667 0,-3.632 1.249,-6.698 3.771,-9.194 2.519,-2.504 5.547,-3.756 9.102,-3.756 2.368,0 4.566,0.577 6.584,1.723 2.017,1.15 3.585,2.723 4.716,4.717 1.135,1.996 1.697,4.214 1.697,6.653 0,2.42 -0.562,4.613 -1.697,6.579 -1.131,1.957 -2.72,3.525 -4.774,4.7 -2.047,1.188 -4.219,1.771 -6.526,1.771 m -0.139,2.967 c 4.628,0 8.503,-1.537 11.615,-4.629 3.115,-3.085 4.679,-6.883 4.679,-11.398 0,-4.472 -1.554,-8.265 -4.665,-11.38 -3.111,-3.118 -6.902,-4.674 -11.371,-4.674 -4.53,0 -8.359,1.551 -11.47,4.651 -3.127,3.102 -4.68,6.854 -4.68,11.255 0,2.936 0.712,5.653 2.131,8.162 1.42,2.502 3.349,4.468 5.804,5.888 2.456,1.418 5.109,2.125 7.957,2.125"
       style="display:inline;fill:#046fb7;fill-opacity:1;fill-rule:nonzero;stroke:none"
       id="path1169-8-9" /><path
       d="m 16.032165,289.63713 c -2.255,0 -4.406,-0.583 -6.4289999,-1.771 -2.022,-1.175 -3.601,-2.764 -4.741,-4.755 -1.141,-1.992 -1.703,-4.216 -1.703,-6.667 0,-3.632 1.249,-6.698 3.771,-9.194 2.519,-2.504 5.5469999,-3.756 9.1019999,-3.756 2.368,0 4.566,0.577 6.584,1.723 2.017,1.15 3.585,2.723 4.716,4.717 1.135,1.996 1.697,4.214 1.697,6.653 0,2.42 -0.562,4.613 -1.697,6.579 -1.131,1.957 -2.72,3.525 -4.774,4.7 -2.047,1.188 -4.219,1.771 -6.526,1.771 m -0.139,2.967 c 4.628,0 8.503,-1.537 11.615,-4.629 3.115,-3.085 4.679,-6.883 4.679,-11.398 0,-4.472 -1.554,-8.265 -4.665,-11.38 -3.111,-3.118 -6.902,-4.674 -11.371,-4.674 -4.53,0 -8.3589999,1.551 -11.4699999,4.651 -3.127,3.102 -4.68000005,6.854 -4.68000005,11.255 0,2.936 0.712,5.653 2.13100005,8.162 1.42,2.502 3.349,4.468 5.804,5.888 2.4559999,1.418 5.1089999,2.125 7.9569999,2.125"
       style="display:inline;fill:#046fb7;fill-opacity:1;fill-rule:nonzero;stroke:none"
       id="path1169-8-9-2" /><path
       d="m 857.04562,289.75172 c -2.255,0 -4.406,-0.58301 -6.429,-1.77101 -2.022,-1.175 -3.601,-2.764 -4.741,-4.755 -1.141,-1.992 -1.703,-4.216 -1.703,-6.66699 0,-3.632 1.249,-6.698 3.771,-9.194 2.519,-2.50401 5.547,-3.756 9.102,-3.756 2.368,0 4.566,0.577 6.584,1.723 2.017,1.15 3.585,2.723 4.716,4.717 1.135,1.996 1.697,4.214 1.697,6.653 0,2.42 -0.562,4.613 -1.697,6.579 -1.131,1.957 -2.72,3.525 -4.774,4.7 -2.047,1.188 -4.219,1.771 -6.526,1.771 m -0.139,2.967 c 4.628,0 8.503,-1.537 11.615,-4.629 3.115,-3.085 4.679,-6.883 4.679,-11.398 0,-4.472 -1.554,-8.265 -4.665,-11.38 -3.111,-3.118 -6.902,-4.674 -11.371,-4.674 -4.53,0 -8.359,1.551 -11.47,4.651 -3.127,3.102 -4.68,6.854 -4.68,11.255 0,2.936 0.712,5.653 2.131,8.162 1.42,2.502 3.349,4.468 5.804,5.88799 2.456,1.41801 5.109,2.125 7.957,2.125"
       style="display:inline;fill:#046fb7;fill-opacity:1;fill-rule:nonzero;stroke:none"
       id="path1169-8-9-2-9" /></g></svg>
